<?xml version="1.0" standalone="no"?>
<!DOCTYPE svg PUBLIC "-//W3C//DTD SVG 20010904//EN"
 "http://www.w3.org/TR/2001/REC-SVG-20010904/DTD/svg10.dtd">
<svg version="1.0" xmlns="http://www.w3.org/2000/svg"
 width="500.000000pt" height="500.000000pt" viewBox="0 0 500.000000 500.000000"
 preserveAspectRatio="xMidYMid meet">

<g transform="translate(0.000000,500.000000) scale(0.100000,-0.100000)"
fill="#000000" stroke="none">
<path d="M3100 4093 c-140 -201 -258 -367 -262 -369 -3 -2 -35 3 -70 12 -99
25 -361 30 -478 10 -529 -92 -942 -504 -1034 -1032 -31 -173 -16 -414 35 -580
109 -357 385 -664 714 -795 44 -17 83 -34 88 -38 4 -4 -94 -257 -217 -561
-124 -305 -224 -555 -223 -556 2 -2 330 594 506 919 85 157 86 158 116 152 17
-3 98 -8 180 -11 176 -7 298 9 440 58 207 70 346 156 495 307 249 251 370 544
370 896 0 341 -125 640 -370 886 -107 108 -196 173 -313 231 l-66 33 174 400
c96 219 173 400 172 401 -1 1 -117 -163 -257 -363z m-475 -664 c5 -5 -286
-426 -591 -856 -52 -72 -94 -133 -94 -135 0 -2 140 -2 310 0 171 3 310 1 310
-3 0 -14 -325 -813 -334 -823 -12 -12 -115 29 -201 80 -255 151 -419 404 -457
704 -22 174 18 382 103 542 166 311 499 508 846 499 56 -1 104 -5 108 -8z
m360 -128 c534 -328 609 -1054 154 -1487 -115 -109 -281 -196 -436 -228 -88
-19 -225 -30 -257 -22 l-26 6 24 48 c13 26 180 330 369 675 l345 628 -136 -6
c-75 -3 -181 -8 -234 -11 -60 -3 -98 -1 -98 5 0 8 174 414 187 434 9 14 30 6
108 -42z"/>
</g>
</svg>
